<svg xmlns="http://www.w3.org/2000/svg" version="1.1" xmlns:xlink="http://www.w3.org/1999/xlink" xmlns:svgjs="http://svgjs.dev/svgjs" width="1440" height="560" preserveAspectRatio="none" viewBox="0 0 1440 560"><g mask="url(&quot;#SvgjsMask2883&quot;)" fill="none"><rect width="1440" height="560" x="0" y="0" fill="url(&quot;#SvgjsLinearGradient2884&quot;)"></rect><path d="M-108.3 362.51L-108.3 362.51" stroke="rgba(219, 219, 219, 1)" stroke-width="1.5"></path><path d="M-108.3 362.51L-44.22 513.91" stroke="rgba(219, 219, 219, 1)" stroke-width="1.5"></path><path d="M-108.3 362.51L75.6 343.69" stroke="rgba(219, 219, 219, 1)" stroke-width="1.5"></path><path d="M-108.3 362.51L90.04 501.52" stroke="rgba(219, 219, 219, 1)" stroke-width="1.5"></path><path d="M-44.22 513.91L-44.22 513.91" stroke="rgba(219, 219, 219, 1)" stroke-width="1.5"></path><path d="M-44.22 513.91L90.04 501.52" stroke="rgba(219, 219, 219, 1)" stroke-width="1.5"></path><path d="M-104.24 670.4L-104.24 670.4" stroke="rgba(219, 219, 219, 1)" stroke-width="1.5"></path><path d="M-104.24 670.4L-44.22 513.91" stroke="rgba(219, 219, 219, 1)" stroke-width="1.5"></path><path d="M-104.24 670.4L106.87 648.28" stroke="rgba(219, 219, 219, 1)" stroke-width="1.5"></path><path d="M-104.24 670.4L90.04 501.52" stroke="rgba(219, 219, 219, 1)" stroke-width="1.5"></path><path d="M-104.24 670.4L200.16 694.08" stroke="rgba(219, 219, 219, 1)" stroke-width="1.5"></path><path d="M75.6 343.69L75.6 343.69" stroke="rgba(219, 219, 219, 1)" stroke-width="1.5"></path><path d="M75.6 343.69L90.04 501.52" stroke="rgba(219, 219, 219, 1)" stroke-width="1.5"></path><path d="M75.6 343.69L256.15 379.71" stroke="rgba(219, 219, 219, 1)" stroke-width="1.5"></path><path d="M90.04 501.52L90.04 501.52" stroke="rgba(219, 219, 219, 1)" stroke-width="1.5"></path><path d="M90.04 501.52L106.87 648.28" stroke="rgba(219, 219, 219, 1)" stroke-width="1.5"></path><path d="M106.87 648.28L106.87 648.28" stroke="rgba(219, 219, 219, 1)" stroke-width="1.5"></path><path d="M106.87 648.28L200.16 694.08" stroke="rgba(219, 219, 219, 1)" stroke-width="1.5"></path><path d="M256.15 379.71L256.15 379.71" stroke="rgba(219, 219, 219, 1)" stroke-width="1.5"></path><path d="M256.15 379.71L344.07 348.71" stroke="rgba(219, 219, 219, 1)" stroke-width="1.5"></path><path d="M256.15 379.71L260.81 502.47" stroke="rgba(219, 219, 219, 1)" stroke-width="1.5"></path><path d="M256.15 379.71L354.89 509.76" stroke="rgba(219, 219, 219, 1)" stroke-width="1.5"></path><path d="M256.15 379.71L90.04 501.52" stroke="rgba(219, 219, 219, 1)" stroke-width="1.5"></path><path d="M256.15 379.71L522.07 407.2" stroke="rgba(219, 219, 219, 1)" stroke-width="1.5"></path><path d="M260.81 502.47L260.81 502.47" stroke="rgba(219, 219, 219, 1)" stroke-width="1.5"></path><path d="M260.81 502.47L354.89 509.76" stroke="rgba(219, 219, 219, 1)" stroke-width="1.5"></path><path d="M260.81 502.47L90.04 501.52" stroke="rgba(219, 219, 219, 1)" stroke-width="1.5"></path><path d="M260.81 502.47L344.07 348.71" stroke="rgba(219, 219, 219, 1)" stroke-width="1.5"></path><path d="M260.81 502.47L200.16 694.08" stroke="rgba(219, 219, 219, 1)" stroke-width="1.5"></path><path d="M260.81 502.47L106.87 648.28" stroke="rgba(219, 219, 219, 1)" stroke-width="1.5"></path><path d="M200.16 694.08L200.16 694.08" stroke="rgba(219, 219, 219, 1)" stroke-width="1.5"></path><path d="M200.16 694.08L389.96 690.35" stroke="rgba(219, 219, 219, 1)" stroke-width="1.5"></path><path d="M200.16 694.08L90.04 501.52" stroke="rgba(219, 219, 219, 1)" stroke-width="1.5"></path><path d="M200.16 694.08L354.89 509.76" stroke="rgba(219, 219, 219, 1)" stroke-width="1.5"></path><path d="M344.07 348.71L344.07 348.71" stroke="rgba(219, 219, 219, 1)" stroke-width="1.5"></path><path d="M344.07 348.71L354.89 509.76" stroke="rgba(219, 219, 219, 1)" stroke-width="1.5"></path><path d="M344.07 348.71L522.07 407.2" stroke="rgba(219, 219, 219, 1)" stroke-width="1.5"></path><path d="M354.89 509.76L354.89 509.76" stroke="rgba(219, 219, 219, 1)" stroke-width="1.5"></path><path d="M389.96 690.35L389.96 690.35" stroke="rgba(219, 219, 219, 1)" stroke-width="1.5"></path><path d="M389.96 690.35L529.81 646.93" stroke="rgba(219, 219, 219, 1)" stroke-width="1.5"></path><path d="M389.96 690.35L354.89 509.76" stroke="rgba(219, 219, 219, 1)" stroke-width="1.5"></path><path d="M389.96 690.35L549.27 545.03" stroke="rgba(219, 219, 219, 1)" stroke-width="1.5"></path><path d="M389.96 690.35L260.81 502.47" stroke="rgba(219, 219, 219, 1)" stroke-width="1.5"></path><path d="M522.07 407.2L522.07 407.2" stroke="rgba(219, 219, 219, 1)" stroke-width="1.5"></path><path d="M522.07 407.2L549.27 545.03" stroke="rgba(219, 219, 219, 1)" stroke-width="1.5"></path><path d="M522.07 407.2L671.77 368.52" stroke="rgba(219, 219, 219, 1)" stroke-width="1.5"></path><path d="M522.07 407.2L354.89 509.76" stroke="rgba(219, 219, 219, 1)" stroke-width="1.5"></path><path d="M522.07 407.2L670.83 236.69" stroke="rgba(219, 219, 219, 1)" stroke-width="1.5"></path><path d="M522.07 407.2L529.81 646.93" stroke="rgba(219, 219, 219, 1)" stroke-width="1.5"></path><path d="M549.27 545.03L549.27 545.03" stroke="rgba(219, 219, 219, 1)" stroke-width="1.5"></path><path d="M549.27 545.03L529.81 646.93" stroke="rgba(219, 219, 219, 1)" stroke-width="1.5"></path><path d="M529.81 646.93L529.81 646.93" stroke="rgba(219, 219, 219, 1)" stroke-width="1.5"></path><path d="M529.81 646.93L694.37 658.56" stroke="rgba(219, 219, 219, 1)" stroke-width="1.5"></path><path d="M529.81 646.93L354.89 509.76" stroke="rgba(219, 219, 219, 1)" stroke-width="1.5"></path><path d="M529.81 646.93L795.33 555.43" stroke="rgba(219, 219, 219, 1)" stroke-width="1.5"></path><path d="M670.83 236.69L670.83 236.69" stroke="rgba(219, 219, 219, 1)" stroke-width="1.5"></path><path d="M670.83 236.69L790.79 196.86" stroke="rgba(219, 219, 219, 1)" stroke-width="1.5"></path><path d="M670.83 236.69L671.77 368.52" stroke="rgba(219, 219, 219, 1)" stroke-width="1.5"></path><path d="M670.83 236.69L789.48 412.48" stroke="rgba(219, 219, 219, 1)" stroke-width="1.5"></path><path d="M670.83 236.69L846.39 92.49" stroke="rgba(219, 219, 219, 1)" stroke-width="1.5"></path><path d="M671.77 368.52L671.77 368.52" stroke="rgba(219, 219, 219, 1)" stroke-width="1.5"></path><path d="M671.77 368.52L789.48 412.48" stroke="rgba(219, 219, 219, 1)" stroke-width="1.5"></path><path d="M671.77 368.52L790.79 196.86" stroke="rgba(219, 219, 219, 1)" stroke-width="1.5"></path><path d="M671.77 368.52L549.27 545.03" stroke="rgba(219, 219, 219, 1)" stroke-width="1.5"></path><path d="M671.77 368.52L795.33 555.43" stroke="rgba(219, 219, 219, 1)" stroke-width="1.5"></path><path d="M694.37 658.56L694.37 658.56" stroke="rgba(219, 219, 219, 1)" stroke-width="1.5"></path><path d="M694.37 658.56L814.05 700.53" stroke="rgba(219, 219, 219, 1)" stroke-width="1.5"></path><path d="M694.37 658.56L795.33 555.43" stroke="rgba(219, 219, 219, 1)" stroke-width="1.5"></path><path d="M694.37 658.56L549.27 545.03" stroke="rgba(219, 219, 219, 1)" stroke-width="1.5"></path><path d="M694.37 658.56L789.48 412.48" stroke="rgba(219, 219, 219, 1)" stroke-width="1.5"></path><path d="M846.39 92.49L846.39 92.49" stroke="rgba(219, 219, 219, 1)" stroke-width="1.5"></path><path d="M846.39 92.49L790.79 196.86" stroke="rgba(219, 219, 219, 1)" stroke-width="1.5"></path><path d="M846.39 92.49L1010.19 81.78" stroke="rgba(219, 219, 219, 1)" stroke-width="1.5"></path><path d="M790.79 196.86L790.79 196.86" stroke="rgba(219, 219, 219, 1)" stroke-width="1.5"></path><path d="M789.48 412.48L789.48 412.48" stroke="rgba(219, 219, 219, 1)" stroke-width="1.5"></path><path d="M795.33 555.43L795.33 555.43" stroke="rgba(219, 219, 219, 1)" stroke-width="1.5"></path><path d="M795.33 555.43L789.48 412.48" stroke="rgba(219, 219, 219, 1)" stroke-width="1.5"></path><path d="M795.33 555.43L814.05 700.53" stroke="rgba(219, 219, 219, 1)" stroke-width="1.5"></path><path d="M795.33 555.43L962.38 512.48" stroke="rgba(219, 219, 219, 1)" stroke-width="1.5"></path><path d="M795.33 555.43L992.54 654.66" stroke="rgba(219, 219, 219, 1)" stroke-width="1.5"></path><path d="M814.05 700.53L814.05 700.53" stroke="rgba(219, 219, 219, 1)" stroke-width="1.5"></path><path d="M814.05 700.53L992.54 654.66" stroke="rgba(219, 219, 219, 1)" stroke-width="1.5"></path><path d="M814.05 700.53L962.38 512.48" stroke="rgba(219, 219, 219, 1)" stroke-width="1.5"></path><path d="M814.05 700.53L789.48 412.48" stroke="rgba(219, 219, 219, 1)" stroke-width="1.5"></path><path d="M992.63 -85.2L992.63 -85.2" stroke="rgba(219, 219, 219, 1)" stroke-width="1.5"></path><path d="M992.63 -85.2L1121.37 -90.78" stroke="rgba(219, 219, 219, 1)" stroke-width="1.5"></path><path d="M992.63 -85.2L1010.19 81.78" stroke="rgba(219, 219, 219, 1)" stroke-width="1.5"></path><path d="M992.63 -85.2L1135.85 71.4" stroke="rgba(219, 219, 219, 1)" stroke-width="1.5"></path><path d="M992.63 -85.2L846.39 92.49" stroke="rgba(219, 219, 219, 1)" stroke-width="1.5"></path><path d="M992.63 -85.2L1238.68 -65.77" stroke="rgba(219, 219, 219, 1)" stroke-width="1.5"></path><path d="M992.63 -85.2L952.21 227.56" stroke="rgba(219, 219, 219, 1)" stroke-width="1.5"></path><path d="M1010.19 81.78L1010.19 81.78" stroke="rgba(219, 219, 219, 1)" stroke-width="1.5"></path><path d="M1010.19 81.78L1135.85 71.4" stroke="rgba(219, 219, 219, 1)" stroke-width="1.5"></path><path d="M1010.19 81.78L952.21 227.56" stroke="rgba(219, 219, 219, 1)" stroke-width="1.5"></path><path d="M952.21 227.56L952.21 227.56" stroke="rgba(219, 219, 219, 1)" stroke-width="1.5"></path><path d="M952.21 227.56L790.79 196.86" stroke="rgba(219, 219, 219, 1)" stroke-width="1.5"></path><path d="M952.21 227.56L944.41 392.36" stroke="rgba(219, 219, 219, 1)" stroke-width="1.5"></path><path d="M952.21 227.56L846.39 92.49" stroke="rgba(219, 219, 219, 1)" stroke-width="1.5"></path><path d="M952.21 227.56L1126.4 235.66" stroke="rgba(219, 219, 219, 1)" stroke-width="1.5"></path><path d="M952.21 227.56L1152.63 358.16" stroke="rgba(219, 219, 219, 1)" stroke-width="1.5"></path><path d="M944.41 392.36L944.41 392.36" stroke="rgba(219, 219, 219, 1)" stroke-width="1.5"></path><path d="M944.41 392.36L962.38 512.48" stroke="rgba(219, 219, 219, 1)" stroke-width="1.5"></path><path d="M944.41 392.36L789.48 412.48" stroke="rgba(219, 219, 219, 1)" stroke-width="1.5"></path><path d="M944.41 392.36L1091.79 525.24" stroke="rgba(219, 219, 219, 1)" stroke-width="1.5"></path><path d="M962.38 512.48L962.38 512.48" stroke="rgba(219, 219, 219, 1)" stroke-width="1.5"></path><path d="M962.38 512.48L1091.79 525.24" stroke="rgba(219, 219, 219, 1)" stroke-width="1.5"></path><path d="M992.54 654.66L992.54 654.66" stroke="rgba(219, 219, 219, 1)" stroke-width="1.5"></path><path d="M992.54 654.66L962.38 512.48" stroke="rgba(219, 219, 219, 1)" stroke-width="1.5"></path><path d="M992.54 654.66L1147.12 673.05" stroke="rgba(219, 219, 219, 1)" stroke-width="1.5"></path><path d="M1121.37 -90.78L1121.37 -90.78" stroke="rgba(219, 219, 219, 1)" stroke-width="1.5"></path><path d="M1121.37 -90.78L1238.68 -65.77" stroke="rgba(219, 219, 219, 1)" stroke-width="1.5"></path><path d="M1135.85 71.4L1135.85 71.4" stroke="rgba(219, 219, 219, 1)" stroke-width="1.5"></path><path d="M1135.85 71.4L1247.96 109.73" stroke="rgba(219, 219, 219, 1)" stroke-width="1.5"></path><path d="M1135.85 71.4L1121.37 -90.78" stroke="rgba(219, 219, 219, 1)" stroke-width="1.5"></path><path d="M1135.85 71.4L1126.4 235.66" stroke="rgba(219, 219, 219, 1)" stroke-width="1.5"></path><path d="M1135.85 71.4L1238.68 -65.77" stroke="rgba(219, 219, 219, 1)" stroke-width="1.5"></path><path d="M1126.4 235.66L1126.4 235.66" stroke="rgba(219, 219, 219, 1)" stroke-width="1.5"></path><path d="M1126.4 235.66L1152.63 358.16" stroke="rgba(219, 219, 219, 1)" stroke-width="1.5"></path><path d="M1126.4 235.66L1260.6 338.65" stroke="rgba(219, 219, 219, 1)" stroke-width="1.5"></path><path d="M1152.63 358.16L1152.63 358.16" stroke="rgba(219, 219, 219, 1)" stroke-width="1.5"></path><path d="M1152.63 358.16L1260.6 338.65" stroke="rgba(219, 219, 219, 1)" stroke-width="1.5"></path><path d="M1152.63 358.16L1091.79 525.24" stroke="rgba(219, 219, 219, 1)" stroke-width="1.5"></path><path d="M1152.63 358.16L1301.25 255.9" stroke="rgba(219, 219, 219, 1)" stroke-width="1.5"></path><path d="M1152.63 358.16L1264.43 528.55" stroke="rgba(219, 219, 219, 1)" stroke-width="1.5"></path><path d="M1152.63 358.16L944.41 392.36" stroke="rgba(219, 219, 219, 1)" stroke-width="1.5"></path><path d="M1091.79 525.24L1091.79 525.24" stroke="rgba(219, 219, 219, 1)" stroke-width="1.5"></path><path d="M1091.79 525.24L1147.12 673.05" stroke="rgba(219, 219, 219, 1)" stroke-width="1.5"></path><path d="M1091.79 525.24L992.54 654.66" stroke="rgba(219, 219, 219, 1)" stroke-width="1.5"></path><path d="M1147.12 673.05L1147.12 673.05" stroke="rgba(219, 219, 219, 1)" stroke-width="1.5"></path><path d="M1147.12 673.05L1250.55 697.16" stroke="rgba(219, 219, 219, 1)" stroke-width="1.5"></path><path d="M1238.68 -65.77L1238.68 -65.77" stroke="rgba(219, 219, 219, 1)" stroke-width="1.5"></path><path d="M1238.68 -65.77L1247.96 109.73" stroke="rgba(219, 219, 219, 1)" stroke-width="1.5"></path><path d="M1247.96 109.73L1247.96 109.73" stroke="rgba(219, 219, 219, 1)" stroke-width="1.5"></path><path d="M1247.96 109.73L1301.25 255.9" stroke="rgba(219, 219, 219, 1)" stroke-width="1.5"></path><path d="M1247.96 109.73L1126.4 235.66" stroke="rgba(219, 219, 219, 1)" stroke-width="1.5"></path><path d="M1247.96 109.73L1427.78 45.93" stroke="rgba(219, 219, 219, 1)" stroke-width="1.5"></path><path d="M1247.96 109.73L1446.9 207.17" stroke="rgba(219, 219, 219, 1)" stroke-width="1.5"></path><path d="M1301.25 255.9L1301.25 255.9" stroke="rgba(219, 219, 219, 1)" stroke-width="1.5"></path><path d="M1301.25 255.9L1260.6 338.65" stroke="rgba(219, 219, 219, 1)" stroke-width="1.5"></path><path d="M1301.25 255.9L1446.9 207.17" stroke="rgba(219, 219, 219, 1)" stroke-width="1.5"></path><path d="M1260.6 338.65L1260.6 338.65" stroke="rgba(219, 219, 219, 1)" stroke-width="1.5"></path><path d="M1264.43 528.55L1264.43 528.55" stroke="rgba(219, 219, 219, 1)" stroke-width="1.5"></path><path d="M1264.43 528.55L1416.36 498.13" stroke="rgba(219, 219, 219, 1)" stroke-width="1.5"></path><path d="M1264.43 528.55L1250.55 697.16" stroke="rgba(219, 219, 219, 1)" stroke-width="1.5"></path><path d="M1250.55 697.16L1250.55 697.16" stroke="rgba(219, 219, 219, 1)" stroke-width="1.5"></path><path d="M1250.55 697.16L1091.79 525.24" stroke="rgba(219, 219, 219, 1)" stroke-width="1.5"></path><path d="M1250.55 697.16L1416.36 498.13" stroke="rgba(219, 219, 219, 1)" stroke-width="1.5"></path><path d="M1439.48 -54.86L1439.48 -54.86" stroke="rgba(219, 219, 219, 1)" stroke-width="1.5"></path><path d="M1439.48 -54.86L1427.78 45.93" stroke="rgba(219, 219, 219, 1)" stroke-width="1.5"></path><path d="M1439.48 -54.86L1565.02 -44.55" stroke="rgba(219, 219, 219, 1)" stroke-width="1.5"></path><path d="M1439.48 -54.86L1569.51 48.68" stroke="rgba(219, 219, 219, 1)" stroke-width="1.5"></path><path d="M1439.48 -54.86L1238.68 -65.77" stroke="rgba(219, 219, 219, 1)" stroke-width="1.5"></path><path d="M1439.48 -54.86L1247.96 109.73" stroke="rgba(219, 219, 219, 1)" stroke-width="1.5"></path><path d="M1427.78 45.93L1427.78 45.93" stroke="rgba(219, 219, 219, 1)" stroke-width="1.5"></path><path d="M1446.9 207.17L1446.9 207.17" stroke="rgba(219, 219, 219, 1)" stroke-width="1.5"></path><path d="M1446.9 207.17L1553.5 197.47" stroke="rgba(219, 219, 219, 1)" stroke-width="1.5"></path><path d="M1446.9 207.17L1427.78 45.93" stroke="rgba(219, 219, 219, 1)" stroke-width="1.5"></path><path d="M1446.9 207.17L1557.04 359.2" stroke="rgba(219, 219, 219, 1)" stroke-width="1.5"></path><path d="M1452.92 406.15L1452.92 406.15" stroke="rgba(219, 219, 219, 1)" stroke-width="1.5"></path><path d="M1452.92 406.15L1416.36 498.13" stroke="rgba(219, 219, 219, 1)" stroke-width="1.5"></path><path d="M1452.92 406.15L1557.04 359.2" stroke="rgba(219, 219, 219, 1)" stroke-width="1.5"></path><path d="M1452.92 406.15L1576.42 536.39" stroke="rgba(219, 219, 219, 1)" stroke-width="1.5"></path><path d="M1452.92 406.15L1446.9 207.17" stroke="rgba(219, 219, 219, 1)" stroke-width="1.5"></path><path d="M1452.92 406.15L1260.6 338.65" stroke="rgba(219, 219, 219, 1)" stroke-width="1.5"></path><path d="M1452.92 406.15L1301.25 255.9" stroke="rgba(219, 219, 219, 1)" stroke-width="1.5"></path><path d="M1416.36 498.13L1416.36 498.13" stroke="rgba(219, 219, 219, 1)" stroke-width="1.5"></path><path d="M1416.36 498.13L1576.42 536.39" stroke="rgba(219, 219, 219, 1)" stroke-width="1.5"></path><path d="M1416.36 498.13L1557.04 359.2" stroke="rgba(219, 219, 219, 1)" stroke-width="1.5"></path><path d="M1565.02 -44.55L1565.02 -44.55" stroke="rgba(219, 219, 219, 1)" stroke-width="1.5"></path><path d="M1565.02 -44.55L1569.51 48.68" stroke="rgba(219, 219, 219, 1)" stroke-width="1.5"></path><path d="M1569.51 48.68L1569.51 48.68" stroke="rgba(219, 219, 219, 1)" stroke-width="1.5"></path><path d="M1569.51 48.68L1427.78 45.93" stroke="rgba(219, 219, 219, 1)" stroke-width="1.5"></path><path d="M1553.5 197.47L1553.5 197.47" stroke="rgba(219, 219, 219, 1)" stroke-width="1.5"></path><path d="M1553.5 197.47L1569.51 48.68" stroke="rgba(219, 219, 219, 1)" stroke-width="1.5"></path><path d="M1553.5 197.47L1557.04 359.2" stroke="rgba(219, 219, 219, 1)" stroke-width="1.5"></path><path d="M1553.5 197.47L1427.78 45.93" stroke="rgba(219, 219, 219, 1)" stroke-width="1.5"></path><path d="M1553.5 197.47L1452.92 406.15" stroke="rgba(219, 219, 219, 1)" stroke-width="1.5"></path><path d="M1557.04 359.2L1557.04 359.2" stroke="rgba(219, 219, 219, 1)" stroke-width="1.5"></path><path d="M1557.04 359.2L1576.42 536.39" stroke="rgba(219, 219, 219, 1)" stroke-width="1.5"></path><path d="M1576.42 536.39L1576.42 536.39" stroke="rgba(219, 219, 219, 1)" stroke-width="1.5"></path><path d="M1576.42 536.39L1570.73 672.65" stroke="rgba(219, 219, 219, 1)" stroke-width="1.5"></path><path d="M1570.73 672.65L1570.73 672.65" stroke="rgba(219, 219, 219, 1)" stroke-width="1.5"></path><path d="M1570.73 672.65L1416.36 498.13" stroke="rgba(219, 219, 219, 1)" stroke-width="1.5"></path><path d="M1570.73 672.65L1452.92 406.15" stroke="rgba(219, 219, 219, 1)" stroke-width="1.5"></path><path d="M1570.73 672.65L1557.04 359.2" stroke="rgba(219, 219, 219, 1)" stroke-width="1.5"></path><path d="M1570.73 672.65L1250.55 697.16" stroke="rgba(219, 219, 219, 1)" stroke-width="1.5"></path><path d="M1570.73 672.65L1264.43 528.55" stroke="rgba(219, 219, 219, 1)" stroke-width="1.5"></path><circle r="5" cx="-108.3" cy="362.51" fill="rgba(219, 219, 219, 1)"></circle><circle r="5" cx="-44.22" cy="513.91" fill="rgba(219, 219, 219, 1)"></circle><circle r="5" cx="-104.24" cy="670.4" fill="rgba(219, 219, 219, 1)"></circle><circle r="5" cx="75.6" cy="343.69" fill="rgba(219, 219, 219, 1)"></circle><circle r="5" cx="90.04" cy="501.52" fill="rgba(219, 219, 219, 1)"></circle><circle r="5" cx="106.87" cy="648.28" fill="rgba(219, 219, 219, 1)"></circle><circle r="5" cx="256.15" cy="379.71" fill="rgba(219, 219, 219, 1)"></circle><circle r="5" cx="260.81" cy="502.47" fill="rgba(219, 219, 219, 1)"></circle><circle r="5" cx="200.16" cy="694.08" fill="rgba(219, 219, 219, 1)"></circle><circle r="5" cx="344.07" cy="348.71" fill="rgba(219, 219, 219, 1)"></circle><circle r="5" cx="354.89" cy="509.76" fill="rgba(219, 219, 219, 1)"></circle><circle r="5" cx="389.96" cy="690.35" fill="rgba(219, 219, 219, 1)"></circle><circle r="5" cx="522.07" cy="407.2" fill="rgba(219, 219, 219, 1)"></circle><circle r="5" cx="549.27" cy="545.03" fill="rgba(219, 219, 219, 1)"></circle><circle r="5" cx="529.81" cy="646.93" fill="rgba(219, 219, 219, 1)"></circle><circle r="5" cx="670.83" cy="236.69" fill="rgba(219, 219, 219, 1)"></circle><circle r="5" cx="671.77" cy="368.52" fill="rgba(219, 219, 219, 1)"></circle><circle r="5" cx="694.37" cy="658.56" fill="rgba(219, 219, 219, 1)"></circle><circle r="5" cx="846.39" cy="92.49" fill="rgba(219, 219, 219, 1)"></circle><circle r="5" cx="790.79" cy="196.86" fill="rgba(219, 219, 219, 1)"></circle><circle r="5" cx="789.48" cy="412.48" fill="rgba(219, 219, 219, 1)"></circle><circle r="5" cx="795.33" cy="555.43" fill="rgba(219, 219, 219, 1)"></circle><circle r="5" cx="814.05" cy="700.53" fill="rgba(219, 219, 219, 1)"></circle><circle r="5" cx="992.63" cy="-85.2" fill="rgba(219, 219, 219, 1)"></circle><circle r="5" cx="1010.19" cy="81.78" fill="rgba(219, 219, 219, 1)"></circle><circle r="5" cx="952.21" cy="227.56" fill="rgba(219, 219, 219, 1)"></circle><circle r="5" cx="944.41" cy="392.36" fill="rgba(219, 219, 219, 1)"></circle><circle r="5" cx="962.38" cy="512.48" fill="rgba(219, 219, 219, 1)"></circle><circle r="5" cx="992.54" cy="654.66" fill="rgba(219, 219, 219, 1)"></circle><circle r="5" cx="1121.37" cy="-90.78" fill="rgba(219, 219, 219, 1)"></circle><circle r="5" cx="1135.85" cy="71.4" fill="rgba(219, 219, 219, 1)"></circle><circle r="5" cx="1126.4" cy="235.66" fill="rgba(219, 219, 219, 1)"></circle><circle r="5" cx="1152.63" cy="358.16" fill="rgba(219, 219, 219, 1)"></circle><circle r="5" cx="1091.79" cy="525.24" fill="rgba(219, 219, 219, 1)"></circle><circle r="5" cx="1147.12" cy="673.05" fill="rgba(219, 219, 219, 1)"></circle><circle r="5" cx="1238.68" cy="-65.77" fill="rgba(219, 219, 219, 1)"></circle><circle r="5" cx="1247.96" cy="109.73" fill="rgba(219, 219, 219, 1)"></circle><circle r="5" cx="1301.25" cy="255.9" fill="rgba(219, 219, 219, 1)"></circle><circle r="5" cx="1260.6" cy="338.65" fill="rgba(219, 219, 219, 1)"></circle><circle r="5" cx="1264.43" cy="528.55" fill="rgba(219, 219, 219, 1)"></circle><circle r="5" cx="1250.55" cy="697.16" fill="rgba(219, 219, 219, 1)"></circle><circle r="5" cx="1439.48" cy="-54.86" fill="rgba(219, 219, 219, 1)"></circle><circle r="5" cx="1427.78" cy="45.93" fill="rgba(219, 219, 219, 1)"></circle><circle r="5" cx="1446.9" cy="207.17" fill="rgba(219, 219, 219, 1)"></circle><circle r="5" cx="1452.92" cy="406.15" fill="rgba(219, 219, 219, 1)"></circle><circle r="5" cx="1416.36" cy="498.13" fill="rgba(219, 219, 219, 1)"></circle><circle r="5" cx="1565.02" cy="-44.55" fill="rgba(219, 219, 219, 1)"></circle><circle r="5" cx="1569.51" cy="48.68" fill="rgba(219, 219, 219, 1)"></circle><circle r="5" cx="1553.5" cy="197.47" fill="rgba(219, 219, 219, 1)"></circle><circle r="5" cx="1557.04" cy="359.2" fill="rgba(219, 219, 219, 1)"></circle><circle r="5" cx="1576.42" cy="536.39" fill="rgba(219, 219, 219, 1)"></circle><circle r="5" cx="1570.73" cy="672.65" fill="rgba(219, 219, 219, 1)"></circle><path d="M194.91 681.86L194.91 681.86" stroke="hsl(220, 100%, 100%)" stroke-width="1.5"></path><path d="M194.91 681.86L88.62 671.68" stroke="hsl(220, 100%, 100%)" stroke-width="1.5"></path><path d="M194.91 681.86L245.68 540.57" stroke="hsl(220, 100%, 100%)" stroke-width="1.5"></path><path d="M488.71 517.04L488.71 517.04" stroke="hsl(220, 100%, 100%)" stroke-width="1.5"></path><path d="M488.71 517.04L390.05 491.83" stroke="hsl(220, 100%, 100%)" stroke-width="1.5"></path><path d="M488.71 517.04L561.15 667.44" stroke="hsl(220, 100%, 100%)" stroke-width="1.5"></path><path d="M488.71 517.04L358.34 641.41" stroke="hsl(220, 100%, 100%)" stroke-width="1.5"></path><path d="M488.71 517.04L692.12 492.07" stroke="hsl(220, 100%, 100%)" stroke-width="1.5"></path><path d="M488.71 517.04L657.62 654.28" stroke="hsl(220, 100%, 100%)" stroke-width="1.5"></path><path d="M488.71 517.04L680.81 392.23" stroke="hsl(220, 100%, 100%)" stroke-width="1.5"></path><path d="M561.15 667.44L561.15 667.44" stroke="hsl(220, 100%, 100%)" stroke-width="1.5"></path><path d="M561.15 667.44L657.62 654.28" stroke="hsl(220, 100%, 100%)" stroke-width="1.5"></path><path d="M561.15 667.44L358.34 641.41" stroke="hsl(220, 100%, 100%)" stroke-width="1.5"></path><path d="M561.15 667.44L692.12 492.07" stroke="hsl(220, 100%, 100%)" stroke-width="1.5"></path><path d="M561.15 667.44L390.05 491.83" stroke="hsl(220, 100%, 100%)" stroke-width="1.5"></path><path d="M1126.07 406.13L1126.07 406.13" stroke="hsl(220, 100%, 100%)" stroke-width="1.5"></path><path d="M1126.07 406.13L1135.84 493.08" stroke="hsl(220, 100%, 100%)" stroke-width="1.5"></path><path d="M1126.07 406.13L997.36 407.92" stroke="hsl(220, 100%, 100%)" stroke-width="1.5"></path><path d="M1126.07 406.13L1254.01 385.07" stroke="hsl(220, 100%, 100%)" stroke-width="1.5"></path><path d="M1126.07 406.13L1109.73 211" stroke="hsl(220, 100%, 100%)" stroke-width="1.5"></path><path d="M1126.07 406.13L1256.03 554.53" stroke="hsl(220, 100%, 100%)" stroke-width="1.5"></path><path d="M1126.07 406.13L985.55 557.65" stroke="hsl(220, 100%, 100%)" stroke-width="1.5"></path><path d="M1254.01 385.07L1254.01 385.07" stroke="hsl(220, 100%, 100%)" stroke-width="1.5"></path><path d="M1254.01 385.07L1273.28 255.46" stroke="hsl(220, 100%, 100%)" stroke-width="1.5"></path><path d="M1254.01 385.07L1135.84 493.08" stroke="hsl(220, 100%, 100%)" stroke-width="1.5"></path><path d="M1254.01 385.07L1256.03 554.53" stroke="hsl(220, 100%, 100%)" stroke-width="1.5"></path><path d="M1443.37 56.47L1443.37 56.47" stroke="hsl(220, 100%, 100%)" stroke-width="1.5"></path><path d="M1443.37 56.47L1567.9 49.6" stroke="hsl(220, 100%, 100%)" stroke-width="1.5"></path><path d="M1443.37 56.47L1389.24 -88.47" stroke="hsl(220, 100%, 100%)" stroke-width="1.5"></path><path d="M1443.37 56.47L1548.1 -79.53" stroke="hsl(220, 100%, 100%)" stroke-width="1.5"></path><path d="M1567.9 49.6L1567.9 49.6" stroke="hsl(220, 100%, 100%)" stroke-width="1.5"></path><path d="M1567.9 49.6L1548.1 -79.53" stroke="hsl(220, 100%, 100%)" stroke-width="1.5"></path><path d="M-82.14 537.64L-82.14 537.64" stroke="hsl(220, 100%, 100%)" stroke-width="1.5"></path><path d="M-82.14 537.64L38.06 519.88" stroke="hsl(220, 100%, 100%)" stroke-width="1.5"></path><path d="M-60.22 692.18L-60.22 692.18" stroke="hsl(220, 100%, 100%)" stroke-width="1.5"></path><path d="M-60.22 692.18L88.62 671.68" stroke="hsl(220, 100%, 100%)" stroke-width="1.5"></path><path d="M-60.22 692.18L-82.14 537.64" stroke="hsl(220, 100%, 100%)" stroke-width="1.5"></path><path d="M-60.22 692.18L38.06 519.88" stroke="hsl(220, 100%, 100%)" stroke-width="1.5"></path><path d="M-60.22 692.18L194.91 681.86" stroke="hsl(220, 100%, 100%)" stroke-width="1.5"></path><path d="M-60.22 692.18L245.68 540.57" stroke="hsl(220, 100%, 100%)" stroke-width="1.5"></path><path d="M38.06 519.88L38.06 519.88" stroke="hsl(220, 100%, 100%)" stroke-width="1.5"></path><path d="M38.06 519.88L88.62 671.68" stroke="hsl(220, 100%, 100%)" stroke-width="1.5"></path><path d="M38.06 519.88L245.68 540.57" stroke="hsl(220, 100%, 100%)" stroke-width="1.5"></path><path d="M38.06 519.88L194.91 681.86" stroke="hsl(220, 100%, 100%)" stroke-width="1.5"></path><path d="M38.06 519.88L358.34 641.41" stroke="hsl(220, 100%, 100%)" stroke-width="1.5"></path><path d="M88.62 671.68L88.62 671.68" stroke="hsl(220, 100%, 100%)" stroke-width="1.5"></path><path d="M88.62 671.68L245.68 540.57" stroke="hsl(220, 100%, 100%)" stroke-width="1.5"></path><path d="M88.62 671.68L-82.14 537.64" stroke="hsl(220, 100%, 100%)" stroke-width="1.5"></path><path d="M245.68 540.57L245.68 540.57" stroke="hsl(220, 100%, 100%)" stroke-width="1.5"></path><path d="M245.68 540.57L358.34 641.41" stroke="hsl(220, 100%, 100%)" stroke-width="1.5"></path><path d="M245.68 540.57L390.05 491.83" stroke="hsl(220, 100%, 100%)" stroke-width="1.5"></path><path d="M245.68 540.57L488.71 517.04" stroke="hsl(220, 100%, 100%)" stroke-width="1.5"></path><path d="M390.05 491.83L390.05 491.83" stroke="hsl(220, 100%, 100%)" stroke-width="1.5"></path><path d="M358.34 641.41L358.34 641.41" stroke="hsl(220, 100%, 100%)" stroke-width="1.5"></path><path d="M358.34 641.41L390.05 491.83" stroke="hsl(220, 100%, 100%)" stroke-width="1.5"></path><path d="M680.81 392.23L680.81 392.23" stroke="hsl(220, 100%, 100%)" stroke-width="1.5"></path><path d="M680.81 392.23L692.12 492.07" stroke="hsl(220, 100%, 100%)" stroke-width="1.5"></path><path d="M680.81 392.23L826.9 349.92" stroke="hsl(220, 100%, 100%)" stroke-width="1.5"></path><path d="M692.12 492.07L692.12 492.07" stroke="hsl(220, 100%, 100%)" stroke-width="1.5"></path><path d="M692.12 492.07L844.12 531.1" stroke="hsl(220, 100%, 100%)" stroke-width="1.5"></path><path d="M692.12 492.07L657.62 654.28" stroke="hsl(220, 100%, 100%)" stroke-width="1.5"></path><path d="M692.12 492.07L826.9 349.92" stroke="hsl(220, 100%, 100%)" stroke-width="1.5"></path><path d="M657.62 654.28L657.62 654.28" stroke="hsl(220, 100%, 100%)" stroke-width="1.5"></path><path d="M657.62 654.28L807.69 701.23" stroke="hsl(220, 100%, 100%)" stroke-width="1.5"></path><path d="M657.62 654.28L844.12 531.1" stroke="hsl(220, 100%, 100%)" stroke-width="1.5"></path><path d="M826.9 349.92L826.9 349.92" stroke="hsl(220, 100%, 100%)" stroke-width="1.5"></path><path d="M826.9 349.92L997.36 407.92" stroke="hsl(220, 100%, 100%)" stroke-width="1.5"></path><path d="M826.9 349.92L844.12 531.1" stroke="hsl(220, 100%, 100%)" stroke-width="1.5"></path><path d="M844.12 531.1L844.12 531.1" stroke="hsl(220, 100%, 100%)" stroke-width="1.5"></path><path d="M844.12 531.1L985.55 557.65" stroke="hsl(220, 100%, 100%)" stroke-width="1.5"></path><path d="M844.12 531.1L807.69 701.23" stroke="hsl(220, 100%, 100%)" stroke-width="1.5"></path><path d="M807.69 701.23L807.69 701.23" stroke="hsl(220, 100%, 100%)" stroke-width="1.5"></path><path d="M807.69 701.23L998.58 687.49" stroke="hsl(220, 100%, 100%)" stroke-width="1.5"></path><path d="M807.69 701.23L985.55 557.65" stroke="hsl(220, 100%, 100%)" stroke-width="1.5"></path><path d="M807.69 701.23L692.12 492.07" stroke="hsl(220, 100%, 100%)" stroke-width="1.5"></path><path d="M807.69 701.23L561.15 667.44" stroke="hsl(220, 100%, 100%)" stroke-width="1.5"></path><path d="M997.36 407.92L997.36 407.92" stroke="hsl(220, 100%, 100%)" stroke-width="1.5"></path><path d="M997.36 407.92L985.55 557.65" stroke="hsl(220, 100%, 100%)" stroke-width="1.5"></path><path d="M997.36 407.92L1135.84 493.08" stroke="hsl(220, 100%, 100%)" stroke-width="1.5"></path><path d="M985.55 557.65L985.55 557.65" stroke="hsl(220, 100%, 100%)" stroke-width="1.5"></path><path d="M985.55 557.65L998.58 687.49" stroke="hsl(220, 100%, 100%)" stroke-width="1.5"></path><path d="M998.58 687.49L998.58 687.49" stroke="hsl(220, 100%, 100%)" stroke-width="1.5"></path><path d="M998.58 687.49L1107.29 699.63" stroke="hsl(220, 100%, 100%)" stroke-width="1.5"></path><path d="M1109.73 211L1109.73 211" stroke="hsl(220, 100%, 100%)" stroke-width="1.5"></path><path d="M1109.73 211L1273.28 255.46" stroke="hsl(220, 100%, 100%)" stroke-width="1.5"></path><path d="M1109.73 211L1254.01 385.07" stroke="hsl(220, 100%, 100%)" stroke-width="1.5"></path><path d="M1109.73 211L997.36 407.92" stroke="hsl(220, 100%, 100%)" stroke-width="1.5"></path><path d="M1109.73 211L1135.84 493.08" stroke="hsl(220, 100%, 100%)" stroke-width="1.5"></path><path d="M1135.84 493.08L1135.84 493.08" stroke="hsl(220, 100%, 100%)" stroke-width="1.5"></path><path d="M1135.84 493.08L1256.03 554.53" stroke="hsl(220, 100%, 100%)" stroke-width="1.5"></path><path d="M1107.29 699.63L1107.29 699.63" stroke="hsl(220, 100%, 100%)" stroke-width="1.5"></path><path d="M1107.29 699.63L1252.96 672.98" stroke="hsl(220, 100%, 100%)" stroke-width="1.5"></path><path d="M1107.29 699.63L985.55 557.65" stroke="hsl(220, 100%, 100%)" stroke-width="1.5"></path><path d="M1107.29 699.63L1256.03 554.53" stroke="hsl(220, 100%, 100%)" stroke-width="1.5"></path><path d="M1107.29 699.63L1135.84 493.08" stroke="hsl(220, 100%, 100%)" stroke-width="1.5"></path><path d="M1107.29 699.63L1126.07 406.13" stroke="hsl(220, 100%, 100%)" stroke-width="1.5"></path><path d="M1240.45 -100.8L1240.45 -100.8" stroke="hsl(220, 100%, 100%)" stroke-width="1.5"></path><path d="M1240.45 -100.8L1389.24 -88.47" stroke="hsl(220, 100%, 100%)" stroke-width="1.5"></path><path d="M1240.45 -100.8L1443.37 56.47" stroke="hsl(220, 100%, 100%)" stroke-width="1.5"></path><path d="M1240.45 -100.8L1548.1 -79.53" stroke="hsl(220, 100%, 100%)" stroke-width="1.5"></path><path d="M1240.45 -100.8L1109.73 211" stroke="hsl(220, 100%, 100%)" stroke-width="1.5"></path><path d="M1240.45 -100.8L1273.28 255.46" stroke="hsl(220, 100%, 100%)" stroke-width="1.5"></path><path d="M1273.28 255.46L1273.28 255.46" stroke="hsl(220, 100%, 100%)" stroke-width="1.5"></path><path d="M1273.28 255.46L1421.28 259.58" stroke="hsl(220, 100%, 100%)" stroke-width="1.5"></path><path d="M1256.03 554.53L1256.03 554.53" stroke="hsl(220, 100%, 100%)" stroke-width="1.5"></path><path d="M1256.03 554.53L1252.96 672.98" stroke="hsl(220, 100%, 100%)" stroke-width="1.5"></path><path d="M1252.96 672.98L1252.96 672.98" stroke="hsl(220, 100%, 100%)" stroke-width="1.5"></path><path d="M1252.96 672.98L1454.67 655.37" stroke="hsl(220, 100%, 100%)" stroke-width="1.5"></path><path d="M1252.96 672.98L1135.84 493.08" stroke="hsl(220, 100%, 100%)" stroke-width="1.5"></path><path d="M1252.96 672.98L998.58 687.49" stroke="hsl(220, 100%, 100%)" stroke-width="1.5"></path><path d="M1252.96 672.98L1254.01 385.07" stroke="hsl(220, 100%, 100%)" stroke-width="1.5"></path><path d="M1389.24 -88.47L1389.24 -88.47" stroke="hsl(220, 100%, 100%)" stroke-width="1.5"></path><path d="M1389.24 -88.47L1548.1 -79.53" stroke="hsl(220, 100%, 100%)" stroke-width="1.5"></path><path d="M1389.24 -88.47L1567.9 49.6" stroke="hsl(220, 100%, 100%)" stroke-width="1.5"></path><path d="M1389.24 -88.47L1421.28 259.58" stroke="hsl(220, 100%, 100%)" stroke-width="1.5"></path><path d="M1389.24 -88.47L1273.28 255.46" stroke="hsl(220, 100%, 100%)" stroke-width="1.5"></path><path d="M1421.28 259.58L1421.28 259.58" stroke="hsl(220, 100%, 100%)" stroke-width="1.5"></path><path d="M1421.28 259.58L1439.46 371.87" stroke="hsl(220, 100%, 100%)" stroke-width="1.5"></path><path d="M1421.28 259.58L1606.25 225.5" stroke="hsl(220, 100%, 100%)" stroke-width="1.5"></path><path d="M1421.28 259.58L1443.37 56.47" stroke="hsl(220, 100%, 100%)" stroke-width="1.5"></path><path d="M1439.46 371.87L1439.46 371.87" stroke="hsl(220, 100%, 100%)" stroke-width="1.5"></path><path d="M1439.46 371.87L1254.01 385.07" stroke="hsl(220, 100%, 100%)" stroke-width="1.5"></path><path d="M1439.46 371.87L1273.28 255.46" stroke="hsl(220, 100%, 100%)" stroke-width="1.5"></path><path d="M1454.67 655.37L1454.67 655.37" stroke="hsl(220, 100%, 100%)" stroke-width="1.5"></path><path d="M1454.67 655.37L1580.02 644.44" stroke="hsl(220, 100%, 100%)" stroke-width="1.5"></path><path d="M1454.67 655.37L1256.03 554.53" stroke="hsl(220, 100%, 100%)" stroke-width="1.5"></path><path d="M1454.67 655.37L1439.46 371.87" stroke="hsl(220, 100%, 100%)" stroke-width="1.5"></path><path d="M1454.67 655.37L1254.01 385.07" stroke="hsl(220, 100%, 100%)" stroke-width="1.5"></path><path d="M1548.1 -79.53L1548.1 -79.53" stroke="hsl(220, 100%, 100%)" stroke-width="1.5"></path><path d="M1606.25 225.5L1606.25 225.5" stroke="hsl(220, 100%, 100%)" stroke-width="1.5"></path><path d="M1606.25 225.5L1567.9 49.6" stroke="hsl(220, 100%, 100%)" stroke-width="1.5"></path><path d="M1606.25 225.5L1439.46 371.87" stroke="hsl(220, 100%, 100%)" stroke-width="1.5"></path><path d="M1606.25 225.5L1443.37 56.47" stroke="hsl(220, 100%, 100%)" stroke-width="1.5"></path><path d="M1606.25 225.5L1548.1 -79.53" stroke="hsl(220, 100%, 100%)" stroke-width="1.5"></path><path d="M1580.02 644.44L1580.02 644.44" stroke="hsl(220, 100%, 100%)" stroke-width="1.5"></path><path d="M1580.02 644.44L1439.46 371.87" stroke="hsl(220, 100%, 100%)" stroke-width="1.5"></path><path d="M1580.02 644.44L1252.96 672.98" stroke="hsl(220, 100%, 100%)" stroke-width="1.5"></path><path d="M1580.02 644.44L1256.03 554.53" stroke="hsl(220, 100%, 100%)" stroke-width="1.5"></path><path d="M1580.02 644.44L1421.28 259.58" stroke="hsl(220, 100%, 100%)" stroke-width="1.5"></path><circle r="25" cx="194.91" cy="681.86" fill="url(&quot;#SvgjsRadialGradient2885&quot;)"></circle><circle r="25" cx="488.71" cy="517.04" fill="url(&quot;#SvgjsRadialGradient2885&quot;)"></circle><circle r="25" cx="561.15" cy="667.44" fill="url(&quot;#SvgjsRadialGradient2885&quot;)"></circle><circle r="25" cx="1126.07" cy="406.13" fill="url(&quot;#SvgjsRadialGradient2885&quot;)"></circle><circle r="25" cx="1254.01" cy="385.07" fill="url(&quot;#SvgjsRadialGradient2885&quot;)"></circle><circle r="25" cx="1443.37" cy="56.47" fill="url(&quot;#SvgjsRadialGradient2885&quot;)"></circle><circle r="25" cx="1567.9" cy="49.6" fill="url(&quot;#SvgjsRadialGradient2885&quot;)"></circle><circle r="5" cx="-82.14" cy="537.64" fill="#fefeff"></circle><circle r="5" cx="-60.22" cy="692.18" fill="#fefeff"></circle><circle r="5" cx="38.06" cy="519.88" fill="#fefeff"></circle><circle r="5" cx="88.62" cy="671.68" fill="#fefeff"></circle><circle r="5" cx="245.68" cy="540.57" fill="#fefeff"></circle><circle r="5" cx="390.05" cy="491.83" fill="#fefeff"></circle><circle r="5" cx="358.34" cy="641.41" fill="#fefeff"></circle><circle r="5" cx="680.81" cy="392.23" fill="#fefeff"></circle><circle r="5" cx="692.12" cy="492.07" fill="#fefeff"></circle><circle r="5" cx="657.62" cy="654.28" fill="#fefeff"></circle><circle r="5" cx="826.9" cy="349.92" fill="#fefeff"></circle><circle r="5" cx="844.12" cy="531.1" fill="#fefeff"></circle><circle r="5" cx="807.69" cy="701.23" fill="#fefeff"></circle><circle r="5" cx="997.36" cy="407.92" fill="#fefeff"></circle><circle r="5" cx="985.55" cy="557.65" fill="#fefeff"></circle><circle r="5" cx="998.58" cy="687.49" fill="#fefeff"></circle><circle r="5" cx="1109.73" cy="211" fill="#fefeff"></circle><circle r="5" cx="1135.84" cy="493.08" fill="#fefeff"></circle><circle r="5" cx="1107.29" cy="699.63" fill="#fefeff"></circle><circle r="5" cx="1240.45" cy="-100.8" fill="#fefeff"></circle><circle r="5" cx="1273.28" cy="255.46" fill="#fefeff"></circle><circle r="5" cx="1256.03" cy="554.53" fill="#fefeff"></circle><circle r="5" cx="1252.96" cy="672.98" fill="#fefeff"></circle><circle r="5" cx="1389.24" cy="-88.47" fill="#fefeff"></circle><circle r="5" cx="1421.28" cy="259.58" fill="#fefeff"></circle><circle r="5" cx="1439.46" cy="371.87" fill="#fefeff"></circle><circle r="5" cx="1454.67" cy="655.37" fill="#fefeff"></circle><circle r="5" cx="1548.1" cy="-79.53" fill="#fefeff"></circle><circle r="5" cx="1606.25" cy="225.5" fill="#fefeff"></circle><circle r="5" cx="1580.02" cy="644.44" fill="#fefeff"></circle></g><defs><mask id="SvgjsMask2883"><rect width="1440" height="560" fill="#ffffff"></rect></mask><linearGradient x1="15.28%" y1="-39.29%" x2="84.72%" y2="139.29%" gradientUnits="userSpaceOnUse" id="SvgjsLinearGradient2884"><stop stop-color="rgba(6, 58, 112, 1)" offset="0"></stop><stop stop-color="rgba(167, 205, 255, 1)" offset="1"></stop></linearGradient><radialGradient id="SvgjsRadialGradient2885"><stop stop-color="#ffffff" offset="0.1"></stop><stop stop-color="rgba(252, 253, 255, 1)" offset="0.2"></stop><stop stop-color="rgba(252, 253, 255, 0)" offset="1"></stop></radialGradient></defs></svg>