<svg xmlns="http://www.w3.org/2000/svg" version="1.1" xmlns:xlink="http://www.w3.org/1999/xlink" xmlns:svgjs="http://svgjs.dev/svgjs" width="1440" height="560" preserveAspectRatio="none" viewBox="0 0 1440 560"><g mask="url(&quot;#SvgjsMask1001&quot;)" fill="none"><rect width="1440" height="560" x="0" y="0" fill="rgba(253, 253, 255, 0.72)"></rect><path d="M -96.39161156661294,217 C 47.61,247.2 335.61,373.4 623.6083884333871,368 C 911.61,362.6 1055.61,164.8 1343.608388433387,190 C 1631.61,215.2 2044.33,485.4 2063.608388433387,494 C 2082.89,502.6 1564.72,285.2 1440,233" stroke="rgba(47, 175, 255, 1)" stroke-width="2"></path><path d="M -1235.245257696968,237 C -1091.25,270.4 -803.25,411.4 -515.2452576969682,404 C -227.25,396.6 -83.25,219.4 204.75474230303178,200 C 492.75,180.6 677.71,328.2 924.7547423030318,307 C 1171.8,285.8 1336.95,136.6 1440,94" stroke="rgba(47, 175, 255, 1)" stroke-width="2"></path><path d="M -128.12780945604686,201 C 15.87,218.2 303.87,302.4 591.8721905439531,287 C 879.87,271.6 1023.87,83.4 1311.8721905439531,124 C 1599.87,164.6 2006.25,467.8 2031.8721905439531,490 C 2057.5,512.2 1558.37,286 1440,235" stroke="rgba(47, 175, 255, 1)" stroke-width="2"></path><path d="M -665.5908529650457,386 C -521.59,326 -233.59,106.2 54.4091470349543,86 C 342.41,65.8 486.41,271.4 774.4091470349543,285 C 1062.41,298.6 1361.29,131.6 1494.4091470349542,154 C 1627.53,176.4 1450.88,348.4 1440,397" stroke="rgba(47, 175, 255, 1)" stroke-width="2"></path><path d="M -1255.6520718969375,241 C -1111.65,256 -823.65,331.6 -535.6520718969375,316 C -247.65,300.4 -103.65,130 184.3479281030625,163 C 472.35,196 653.22,501.8 904.3479281030625,481 C 1155.48,460.2 1332.87,143.4 1440,59" stroke="rgba(47, 175, 255, 1)" stroke-width="2"></path><path d="M -114.68982693461703,154 C 29.31,185 317.31,295.8 605.310173065383,309 C 893.31,322.2 1037.31,209.4 1325.310173065383,220 C 1613.31,230.6 2022.37,392.6 2045.310173065383,362 C 2068.25,331.4 1561.06,126 1440,67" stroke="rgba(47, 175, 255, 1)" stroke-width="2"></path><path d="M -1171.9956652461412,121 C -1028,183 -740,421.2 -451.99566524614124,431 C -164,440.8 -20,184.4 268.00433475385876,170 C 556,155.6 753.61,374.6 988.0043347538588,359 C 1222.4,343.4 1349.6,145.4 1440,92" stroke="rgba(47, 175, 255, 1)" stroke-width="2"></path><path d="M -980.8994351522203,236 C -836.9,268.8 -548.9,396.2 -260.8994351522203,400 C 27.1,403.8 171.1,268.2 459.1005648477797,255 C 747.1,241.8 982.92,351.2 1179.1005648477797,334 C 1375.28,316.8 1387.82,202 1440,169" stroke="rgba(47, 175, 255, 1)" stroke-width="2"></path><path d="M -1313.019979726164,125 C -1169.02,177 -881.02,361.2 -593.019979726164,385 C -305.02,408.8 -161.02,237.8 126.98002027383598,244 C 414.98,250.2 584.38,412.8 846.980020273836,416 C 1109.58,419.2 1321.4,291.2 1440,260" stroke="rgba(47, 175, 255, 1)" stroke-width="2"></path></g><defs><mask id="SvgjsMask1001"><rect width="1440" height="560" fill="#ffffff"></rect></mask></defs></svg>