<svg xmlns="http://www.w3.org/2000/svg" version="1.1" xmlns:xlink="http://www.w3.org/1999/xlink" xmlns:svgjs="http://svgjs.dev/svgjs" width="1440" height="560" preserveAspectRatio="none" viewBox="0 0 1440 560"><g mask="url(&quot;#SvgjsMask1648&quot;)" fill="none"><rect width="1440" height="560" x="0" y="0" fill="url(&quot;#SvgjsLinearGradient1649&quot;)"></rect><path d="M1440 0L1349.47 0L1440 125.57z" fill="rgba(255, 255, 255, .1)"></path><path d="M1349.47 0L1440 125.57L1440 220.57L1070.48 0z" fill="rgba(255, 255, 255, .075)"></path><path d="M1070.48 0L1440 220.57L1440 365.21L783.51 0z" fill="rgba(255, 255, 255, .05)"></path><path d="M783.51 0L1440 365.21L1440 443.24L545.62 0z" fill="rgba(255, 255, 255, .025)"></path><path d="M0 560L168.97 560L0 348.02z" fill="rgba(0, 0, 0, .1)"></path><path d="M0 348.02L168.97 560L525.17 560L0 328.28999999999996z" fill="rgba(0, 0, 0, .075)"></path><path d="M0 328.29L525.17 560L1016.39 560L0 242.92000000000002z" fill="rgba(0, 0, 0, .05)"></path><path d="M0 242.92000000000002L1016.39 560L1243.36 560L0 234.35000000000002z" fill="rgba(0, 0, 0, .025)"></path></g><defs><mask id="SvgjsMask1648"><rect width="1440" height="560" fill="#ffffff"></rect></mask><linearGradient x1="84.72%" y1="139.29%" x2="15.28%" y2="-39.29%" gradientUnits="userSpaceOnUse" id="SvgjsLinearGradient1649"><stop stop-color="rgba(0, 95, 158, 1)" offset="0"></stop><stop stop-color="rgba(211, 218, 253, 1)" offset="1"></stop></linearGradient></defs></svg>