<svg xmlns="http://www.w3.org/2000/svg" viewBox="0 0 1504 910" preserveAspectRatio="xMidYMid" width="1504" height="910" xmlns:xlink="http://www.w3.org/1999/xlink" style="shape-rendering:auto;display:block;background-position-x:0%;background-position-y:0%;background-size:auto;background-origin:padding-box;background-clip:border-box;background:scroll rgb(163, 186, 223) none  repeat;width:1504px;height:910px;;animation:none"><g style="transform:matrix(1, 0, 0, -1, 0, 910);;animation:none"><defs><linearGradient y2="1" y1="0" x2="0" x1="0" id="lg-bk-n2c88aimwtj"><stop offset="0" stop-opacity="0" stop-color="#dffff9"></stop>

  
<stop offset="0.8250000000000001" stop-opacity="1" stop-color="#dffff9"></stop></linearGradient>


<linearGradient y2="1" y1="0" x2="0" x1="0" id="lg-jg6mq6wfbyj"><stop offset="0" stop-color="rgba(95, 202, 255, 0.394)"></stop>

  
<stop offset="0.37" stop-color="#0075fc"></stop>

  
<stop offset="1" stop-color="#003067"></stop></linearGradient></defs>


<rect fill="url(#lg-bk-n2c88aimwtj)" height="910" width="1504" y="0" x="0" style="fill:url('#lg-bk-n2c88aimwtj');;animation:none"></rect>
<g transform="matrix(1,0,0,1,0,0)" style="transform:matrix(1, 0, 0, 1, 0, 0);;animation:none"><path opacity="0.4" fill="url(#lg-jg6mq6wfbyj)" d="M0 600.6
C752 600.6 752 690.326 1504 690.326
C2256 690.326 2256 600.6 3008 600.6
C3760 600.6 3760 690.326 4512 690.326
C5264 690.326 5264 600.6 6016 600.6
L6016 910 L0 910 Z" transform="matrix(1,0,0,1,-3008,0)" style="fill:url('#lg-jg6mq6wfbyj');transform:matrix(1, 0, 0, 1, -3008, 0);opacity:0.4;;animation:none"></path></g>
<g transform="matrix(1,0,0,1,0,7.311387062072754)" style="transform:matrix(1, 0, 0, 1, 0, 7.31139);;animation:none"><path opacity="0.4" fill="url(#lg-jg6mq6wfbyj)" d="M0 600.6
C752 600.6 752 690.326 1504 690.326
C2256 690.326 2256 600.6 3008 600.6
C3760 600.6 3760 690.326 4512 690.326
C5264 690.326 5264 600.6 6016 600.6
L6016 910 L0 910 Z" transform="matrix(1,0,0,1,-2867.626953125,0)" style="fill:url('#lg-jg6mq6wfbyj');transform:matrix(1, 0, 0, 1, -2867.63, 0);opacity:0.4;;animation:none"></path></g>
<g transform="matrix(1,0,0,1,0,7.3113884925842285)" style="transform:matrix(1, 0, 0, 1, 0, 7.31139);;animation:none"><path opacity="0.4" fill="url(#lg-jg6mq6wfbyj)" d="M0 600.6
C752 600.6 752 690.326 1504 690.326
C2256 690.326 2256 600.6 3008 600.6
C3760 600.6 3760 690.326 4512 690.326
C5264 690.326 5264 600.6 6016 600.6
L6016 910 L0 910 Z" transform="matrix(1,0,0,1,-2727.25341796875,0)" style="fill:url('#lg-jg6mq6wfbyj');transform:matrix(1, 0, 0, 1, -2727.25, 0);opacity:0.4;;animation:none"></path></g>
<g></g></g><!-- [ldio] generated by https://loading.io --></svg>